<svg width="807" height="557" viewBox="0 0 807 557" fill="none" xmlns="http://www.w3.org/2000/svg">
<rect width="807" height="557" rx="42" fill="url(#paint0_radial_0_1)"/>
<mask id="mask0_0_1" style="mask-type:alpha" maskUnits="userSpaceOnUse" x="0" y="0" width="807" height="557">
<rect width="807" height="557" rx="42" fill="url(#paint1_radial_0_1)"/>
</mask>
<g mask="url(#mask0_0_1)">
<rect x="479" y="153" width="638" height="451" rx="45" fill="url(#paint2_radial_0_1)" stroke="url(#paint3_linear_0_1)" stroke-width="2"/>
<path d="M739 204H604L596 236C606.167 234.333 630.2 232 645 236C659.8 240 666.833 247.667 668.5 251H604L596 276.5H668.5C668.5 286.5 658.167 292.667 653 294.5H596V321.5L668.5 390L696.5 368L653 321.5C692.2 320.7 707.667 291.167 710.5 276.5H731.5L739 251C729.833 253 711.3 255.8 710.5 251C709.7 246.2 703.833 235.667 701 231H731.5L739 204Z" fill="url(#paint4_linear_0_1)" stroke="url(#paint5_linear_0_1)"/>
<path d="M555 471H531.399L530 476.505C531.777 476.219 535.979 475.817 538.566 476.505C541.154 477.194 542.383 478.513 542.675 479.086H531.399L530 483.473H542.675C542.675 485.194 540.868 486.254 539.965 486.57H530V491.215L542.675 503L547.57 499.215L539.965 491.215C546.818 491.077 549.522 485.996 550.017 483.473H553.689L555 479.086C553.397 479.43 550.157 479.912 550.017 479.086C549.878 478.26 548.852 476.448 548.357 475.645H553.689L555 471Z" fill="url(#paint6_linear_0_1)" stroke="url(#paint7_linear_0_1)"/>
<path d="M667 503H643.399L642 508.505C643.777 508.219 647.979 507.817 650.566 508.505C653.154 509.194 654.383 510.513 654.675 511.086H643.399L642 515.473H654.675C654.675 517.194 652.868 518.254 651.965 518.57H642V523.215L654.675 535L659.57 531.215L651.965 523.215C658.818 523.077 661.522 517.996 662.017 515.473H665.689L667 511.086C665.397 511.43 662.157 511.912 662.017 511.086C661.878 510.26 660.852 508.448 660.357 507.645H665.689L667 503Z" fill="url(#paint8_linear_0_1)" stroke="url(#paint9_linear_0_1)"/>
<path d="M798 471H774.399L773 476.505C774.777 476.219 778.979 475.817 781.566 476.505C784.154 477.194 785.383 478.513 785.675 479.086H774.399L773 483.473H785.675C785.675 485.194 783.868 486.254 782.965 486.57H773V491.215L785.675 503L790.57 499.215L782.965 491.215C789.818 491.077 792.522 485.996 793.017 483.473H796.689L798 479.086C796.397 479.43 793.157 479.912 793.017 479.086C792.878 478.26 791.852 476.448 791.357 475.645H796.689L798 471Z" fill="url(#paint10_linear_0_1)" stroke="url(#paint11_linear_0_1)"/>
</g>
<defs>
<radialGradient id="paint0_radial_0_1" cx="0" cy="0" r="1" gradientUnits="userSpaceOnUse" gradientTransform="translate(807 573.5) rotate(-122.159) scale(970.379 970.379)">
<stop stop-color="#E8BA95"/>
<stop offset="0.13" stop-color="#E4A87A"/>
<stop offset="0.19" stop-color="#E3995F"/>
<stop offset="0.285" stop-color="#E18D4D"/>
<stop offset="0.395" stop-color="#DF7F38"/>
<stop offset="0.492863" stop-color="#DD7223"/>
<stop offset="0.572544" stop-color="#C66117"/>
<stop offset="0.644928" stop-color="#BC5408"/>
<stop offset="0.74" stop-color="#A24A09"/>
<stop offset="0.78789" stop-color="#8C3F07"/>
<stop offset="0.855" stop-color="#6B3005"/>
<stop offset="0.93" stop-color="#4F2304"/>
<stop offset="0.975" stop-color="#3C1B03"/>
</radialGradient>
<radialGradient id="paint1_radial_0_1" cx="0" cy="0" r="1" gradientUnits="userSpaceOnUse" gradientTransform="translate(807 573.5) rotate(-122.159) scale(970.379 970.379)">
<stop stop-color="#E8BA95"/>
<stop offset="0.13" stop-color="#E4A87A"/>
<stop offset="0.19" stop-color="#E3995F"/>
<stop offset="0.285" stop-color="#E18D4D"/>
<stop offset="0.395" stop-color="#DF7F38"/>
<stop offset="0.492863" stop-color="#DD7223"/>
<stop offset="0.572544" stop-color="#C66117"/>
<stop offset="0.644928" stop-color="#BC5408"/>
<stop offset="0.74" stop-color="#A24A09"/>
<stop offset="0.78789" stop-color="#8C3F07"/>
<stop offset="0.855" stop-color="#6B3005"/>
<stop offset="0.93" stop-color="#4F2304"/>
<stop offset="0.975" stop-color="#3C1B03"/>
</radialGradient>
<radialGradient id="paint2_radial_0_1" cx="0" cy="0" r="1" gradientUnits="userSpaceOnUse" gradientTransform="translate(1104.5 587) rotate(-143.639) scale(967.338 1366.38)">
<stop stop-color="white" stop-opacity="0.05"/>
<stop offset="1" stop-color="white" stop-opacity="0.33"/>
</radialGradient>
<linearGradient id="paint3_linear_0_1" x1="1225" y1="326" x2="410.5" y2="641.5" gradientUnits="userSpaceOnUse">
<stop offset="0.169679" stop-color="#E6AE83"/>
<stop offset="1" stop-color="white"/>
</linearGradient>
<linearGradient id="paint4_linear_0_1" x1="667.5" y1="204" x2="667.5" y2="390" gradientUnits="userSpaceOnUse">
<stop stop-color="white" stop-opacity="0.57"/>
<stop offset="1" stop-color="white" stop-opacity="0"/>
</linearGradient>
<linearGradient id="paint5_linear_0_1" x1="596" y1="189.5" x2="667.5" y2="390" gradientUnits="userSpaceOnUse">
<stop stop-color="white"/>
<stop offset="1" stop-color="white" stop-opacity="0"/>
</linearGradient>
<linearGradient id="paint6_linear_0_1" x1="542.5" y1="471" x2="542.5" y2="503" gradientUnits="userSpaceOnUse">
<stop stop-color="white" stop-opacity="0.35"/>
<stop offset="1" stop-color="white" stop-opacity="0"/>
</linearGradient>
<linearGradient id="paint7_linear_0_1" x1="530" y1="468.505" x2="542.149" y2="503.123" gradientUnits="userSpaceOnUse">
<stop stop-color="white" stop-opacity="0.34"/>
<stop offset="1" stop-color="white" stop-opacity="0"/>
</linearGradient>
<linearGradient id="paint8_linear_0_1" x1="654.5" y1="503" x2="654.5" y2="535" gradientUnits="userSpaceOnUse">
<stop stop-color="white" stop-opacity="0.35"/>
<stop offset="1" stop-color="white" stop-opacity="0"/>
</linearGradient>
<linearGradient id="paint9_linear_0_1" x1="642" y1="500.505" x2="654.149" y2="535.123" gradientUnits="userSpaceOnUse">
<stop stop-color="white" stop-opacity="0.34"/>
<stop offset="1" stop-color="white" stop-opacity="0"/>
</linearGradient>
<linearGradient id="paint10_linear_0_1" x1="785.5" y1="471" x2="785.5" y2="503" gradientUnits="userSpaceOnUse">
<stop stop-color="white" stop-opacity="0.35"/>
<stop offset="1" stop-color="white" stop-opacity="0"/>
</linearGradient>
<linearGradient id="paint11_linear_0_1" x1="773" y1="468.505" x2="785.149" y2="503.123" gradientUnits="userSpaceOnUse">
<stop stop-color="white" stop-opacity="0.34"/>
<stop offset="1" stop-color="white" stop-opacity="0"/>
</linearGradient>
</defs>
</svg>
