<svg width="57" height="41" viewBox="0 0 57 41" fill="none" xmlns="http://www.w3.org/2000/svg">
<path d="M50.5048 1.42515C50.3308 1.27615 50.1208 1.16616 49.8888 1.09416C49.0168 0.409157 47.9268 0.909137 47.5518 1.68614C43.0368 1.29314 38.6048 0.818137 35.4218 4.93614C34.2628 6.43914 33.8408 9.91814 34.7718 11.6091C36.3388 14.4561 38.7908 14.6662 41.4678 16.0042C42.2768 16.4072 43.3768 16.2031 44.2508 16.2031C46.1108 16.2031 47.7758 16.3811 49.6038 15.9401C52.1088 15.3371 54.4967 13.6531 55.7747 11.4241C58.1677 7.26014 54.7378 2.27515 50.5048 1.42515ZM50.9618 12.2192C48.4718 13.8832 43.8328 13.9241 41.1908 12.6041C39.5448 11.7811 37.4418 11.9601 37.2398 9.41014C37.1948 8.85014 37.2598 8.32615 37.3978 7.83515C38.1978 8.51015 38.9758 9.24416 39.9018 9.65916C41.0028 10.1502 42.2178 10.3791 43.4088 10.5241C45.5788 10.7901 48.2928 10.6722 48.6358 8.02116C48.8568 6.30616 46.4058 6.19214 45.8238 7.61814C45.7978 7.62814 45.7828 7.62916 45.7478 7.64616C45.4088 7.75116 45.0158 7.71714 44.6658 7.71214C43.8338 7.70614 43.0087 7.53716 42.2017 7.34916C40.9807 7.06416 40.0168 6.22115 39.0368 5.42015C39.2218 5.27315 39.4148 5.13413 39.6208 5.00913C42.6388 3.15413 47.3668 4.72914 50.6808 4.80714C50.8488 4.81014 50.9958 4.78413 51.1338 4.74613C52.0108 5.28113 52.7298 6.14714 53.3168 6.97914C54.7228 8.97814 52.3938 11.2602 50.9618 12.2192Z" fill="#3838B7"/>
<path d="M19.7697 13.534C19.7637 11.246 18.1847 10.0169 16.4687 8.94195C16.2507 7.51395 14.1906 7.40194 13.6856 8.60894C11.3336 8.63694 9.18163 8.82296 6.80563 9.46496C4.49163 10.092 3.18765 11.5709 1.79165 13.4199C0.541654 15.0719 0.446644 17.5189 0.768644 19.5129C1.14364 21.8489 3.17864 23.201 5.26864 23.943C10.2566 25.716 15.3196 23.553 18.6956 19.866C20.0646 18.369 19.7777 15.382 19.7697 13.534ZM16.8117 15.0659C16.7347 16.5819 16.7617 17.624 15.7157 18.823C14.5267 20.185 12.0787 21.349 10.3067 21.586C8.60867 21.812 6.05964 21.515 4.66964 20.43C3.82564 19.77 3.50064 18.6979 3.53464 17.6009C3.66164 17.6379 3.79265 17.6639 3.92965 17.6639C6.47265 17.6639 10.3027 17.7829 11.9317 15.3589C12.1457 15.2439 12.3487 15.0979 12.5587 14.8989C13.8927 13.6309 11.9626 11.647 10.5996 12.749C10.2186 12.842 9.85963 13.059 9.68063 13.421C8.97063 14.862 6.49565 14.8159 4.80765 14.7629C4.73565 14.7139 4.65865 14.6699 4.57565 14.6359C4.60165 14.6029 4.62564 14.568 4.65164 14.538C7.41164 11.353 11.1347 11.4769 15.0807 11.5239C15.2357 11.6089 15.3916 11.691 15.5346 11.775C17.0726 12.675 16.8827 13.6559 16.8117 15.0659Z" fill="#3838B7"/>
<path d="M36.0865 20.0318C35.2685 19.4618 33.8485 19.7958 33.7475 21.0338C27.8475 21.5348 21.8065 23.3328 18.4795 28.6138C16.8295 31.2318 17.6974 34.6408 19.5514 36.8118C22.2094 39.9248 26.2705 39.6177 29.8855 40.0387C36.9275 40.8597 42.4965 36.6677 44.3155 29.8888C45.9365 23.8387 41.4655 20.3758 36.0865 20.0318ZM41.3185 29.7807C39.9725 34.7997 35.5994 37.4337 30.6294 37.2027C28.2674 37.0937 25.6504 37.0777 23.4784 36.0737C20.1284 34.5277 20.0394 31.3887 21.9154 29.0257C22.4914 29.7257 23.0304 30.4598 23.7564 31.0018C25.1954 32.0788 26.9965 32.1538 28.7325 32.3468C32.4455 32.7608 34.1745 30.7327 36.1665 28.0437C37.2895 26.5257 34.7514 25.0717 33.6444 26.5687C32.9844 27.4597 32.5514 28.2888 31.6314 28.9758C30.4934 29.8248 28.6634 29.4398 27.4024 29.2538C25.7564 29.0128 25.0184 28.1078 24.1344 27.0898C27.8834 24.5518 32.0265 23.9038 36.6565 23.7988C37.2075 23.7858 37.5914 23.5248 37.8214 23.1658C38.6104 23.3258 39.3795 23.5728 40.0705 23.9498C42.0515 25.0338 41.7935 28.0067 41.3185 29.7807Z" fill="#3838B7"/>
</svg>
