<svg width="150" height="94" viewBox="0 0 150 94" fill="none" xmlns="http://www.w3.org/2000/svg">
<path d="M103.962 24.3509C102.929 19.9739 99.2585 14.5729 96.2635 11.5409C93.3805 8.62287 90.4065 5.66584 86.7255 3.76084C78.3285 -0.591158 66.4095 -0.426104 57.5045 2.3289C54.4115 3.2869 50.6725 3.30586 47.4605 3.76286C45.8675 3.98786 44.3385 4.2859 42.8455 4.6699C37.5895 4.8249 32.4315 5.59287 27.9125 8.08787C23.6855 10.4209 19.6905 13.1598 16.1425 16.4508C14.2945 18.1638 12.7965 20.0459 11.5865 22.0639C10.9505 22.5819 10.3405 23.1289 9.77552 23.7179C10.4145 23.2389 10.9055 22.8738 11.2635 22.6068C11.2505 22.6288 11.2395 22.6518 11.2265 22.6748C10.7305 23.0568 9.98952 23.6269 8.98252 24.3959C8.43452 25.1039 7.84752 25.7249 7.22952 26.3689C3.08052 30.6909 1.16052 36.3138 0.749521 42.1748C-0.0374786 53.3888 12.7375 60.7559 22.1285 63.0489C22.2525 63.0799 22.3745 63.1089 22.4965 63.1379C24.4585 66.8279 30.5415 67.8669 34.0795 68.6779C37.0935 69.3679 40.2255 69.4978 43.3035 69.4978H46.0835C45.7525 72.1108 45.3955 74.7229 45.0575 77.3359C44.7355 79.8199 43.4235 82.0929 43.3685 84.5949C43.3255 86.6239 45.4755 88.1479 47.3145 87.7839C47.8865 87.7969 48.4655 87.6679 48.9845 87.3709C51.6105 85.8649 53.9765 83.7039 56.2095 81.4889C57.2475 81.5189 58.3325 81.0548 59.0985 79.9848C60.5655 77.9368 61.8755 75.7499 63.3845 73.7509C63.7645 73.2479 64.1355 72.7499 64.4915 72.2459C65.5285 71.7069 66.5025 71.0559 67.3815 70.2939C68.4265 70.0119 69.4415 69.6089 70.4615 69.2419C71.0755 69.0169 71.6905 68.7939 72.3055 68.5739C72.6215 68.4629 72.9375 68.3508 73.2525 68.2398C69.9845 68.4688 70.6235 68.3309 75.1675 67.8249C75.9995 67.6529 78.2935 67.3899 76.5965 67.5179C77.0065 67.4819 77.4175 67.4459 77.8285 67.3959C82.8815 66.7729 87.5505 66.7489 92.0815 64.0529C96.5295 61.4089 98.7195 57.1429 101.406 52.9809C101.75 52.4489 102.05 51.9039 102.315 51.3509C102.544 51.0549 102.77 50.7559 102.991 50.4589C106.335 45.9589 106.873 40.1288 106.866 34.7008C106.861 30.9528 105.752 27.4799 103.962 24.3509Z" fill="#F04C4B"/>
<path d="M102.845 18.0509C100.835 14.7799 97.7945 12.3469 95.0995 9.68786C92.3045 6.92786 89.7405 5.0399 86.0005 3.7929C84.0815 3.1539 82.0875 3.06786 80.0975 2.76586C78.0515 2.45486 76.0555 1.88691 74.0405 1.42291C69.6855 0.420906 65.3135 0.639886 60.8745 0.639886C53.0115 0.639886 44.6725 0.376868 36.9785 2.28387C33.4195 3.16687 29.9535 4.77591 26.4985 6.00091C23.1705 7.18291 20.1685 8.99688 17.5015 11.2939C14.6595 13.7419 11.9465 16.2469 9.6885 19.2669C7.4295 22.2889 6.16251 25.8729 5.14651 29.4699C4.80551 30.6759 4.7425 31.8619 4.2705 33.0529C3.6535 34.6039 4.0235 36.3099 3.7615 37.9449C3.1985 41.4549 4.05351 44.6789 4.85551 48.0709C5.72751 51.7599 7.8545 54.4809 9.8285 57.5919C10.6265 58.8509 11.7865 60.5529 13.2545 61.1779C16.3175 65.1789 22.8185 67.1379 27.4785 68.0259C30.3715 68.5759 33.5035 69.8519 36.4355 69.8999C38.5265 69.9339 40.7035 70.4379 42.7815 71.0189C42.9765 71.3329 43.2965 71.5609 43.7385 71.6219C44.3105 78.1959 44.9215 85.8579 40.9425 91.3589C40.1065 92.5119 41.7875 94.2409 42.9415 93.3569C49.3135 88.4809 57.0145 84.7199 62.2295 78.5299C63.5405 76.9729 64.9095 75.4909 66.4295 74.1359C67.5015 73.1819 68.1595 70.9189 69.6805 70.7759C73.4245 70.4229 76.5685 68.4419 80.2225 67.7139C83.6115 67.0399 87.0235 65.2739 90.1575 63.8459C93.5685 62.2919 97.8145 60.9049 100.579 58.3309C102.813 56.2519 105.278 53.9019 106.433 50.9919C107.881 47.3469 108.663 43.6879 109.061 39.7949C109.892 31.6319 107.01 24.8349 102.845 18.0509ZM105.803 42.3259C105.501 44.1259 105.129 45.8349 104.601 47.5859C103.924 49.8339 102.71 51.4579 101.424 53.3619C99.1685 56.7009 95.0435 58.3689 91.5375 60.0089C87.7195 61.7919 83.5515 63.9159 79.4415 64.8969C75.8325 65.7579 72.6185 67.5769 68.8765 67.9309C67.9445 68.0189 66.9425 68.4539 66.3825 69.2249C65.0925 70.9989 63.8865 72.4089 62.3505 73.9929C59.0955 77.3499 56.2925 80.7599 52.2715 83.2939C50.1485 84.6319 48.0705 86.0339 46.0235 87.4839C47.5735 82.1919 47.0495 76.1639 46.5835 70.7669C46.5735 70.6489 46.5525 70.5399 46.5215 70.4389C46.6325 69.7639 46.3195 69.0139 45.5105 68.7729C40.2365 67.2029 34.5925 66.4709 29.1455 65.3839C26.0535 64.7679 22.9845 63.9689 20.1475 62.5469C18.8485 61.8949 16.5325 60.8999 15.7035 59.6559C15.3365 59.1039 15.0415 58.8039 14.6005 58.6329C12.8165 56.2619 10.7335 54.2019 9.27551 51.5119C7.16851 47.6219 6.01651 42.2099 6.71751 37.8449C6.98151 36.1999 6.7445 34.6879 7.3775 33.0939C7.9745 31.5919 8.05151 29.8829 8.52551 28.3239C9.95151 23.6199 12.5215 20.0159 15.9555 16.5649C22.0935 10.3979 30.3415 6.9399 38.7095 4.8659C42.3415 3.9649 46.7355 3.79091 50.4725 3.57891C54.9905 3.32191 59.5885 3.56188 64.1135 3.56188C66.4805 3.56188 68.8335 3.44988 71.1745 3.82488C73.2375 4.15488 75.2595 4.73091 77.2925 5.20391C81.7955 6.25191 86.5315 6.00787 90.2535 9.18987C96.7395 14.7369 102.576 20.9679 105.233 29.2619C106.565 33.4179 106.52 38.0619 105.803 42.3259Z" fill="#3838B7"/>
<path d="M144.76 86.544C142.399 86.229 140.18 86.851 137.901 85.867C135.724 84.927 134.22 82.844 132.96 80.937C132.478 80.208 132.043 79.449 131.567 78.715C130.4 76.914 132.291 76.785 133.518 76.17C135.405 75.225 136.569 73.929 138.229 72.756C144.396 68.403 149.258 61.207 149.124 53.423C149.057 49.558 148.737 45.733 147.193 42.141C146.516 40.566 145.772 38.124 144.47 36.953C143.106 35.726 141.509 34.788 139.935 33.856C139.066 33.341 138.182 32.864 137.288 32.413C137.276 32.387 137.267 32.361 137.256 32.335C136.979 31.682 136.327 31.512 135.731 31.658C133.467 30.598 131.147 29.659 128.832 28.673C125.019 27.047 121.225 25.363 117.391 23.774C116.495 23.403 115.542 24.323 115.542 25.184C115.542 27.461 116.589 29.622 116.787 31.904C117.014 34.526 117.296 37.005 117.296 39.648C117.296 42.579 117.014 45.409 116.774 48.325C116.493 51.746 116.292 54.155 114.34 57.114C111.119 61.999 105.252 65.172 100.193 67.802C97.3505 69.28 94.3795 70.448 91.3395 71.446C87.7795 72.615 83.8875 72.516 80.1865 72.519C78.6345 72.52 78.3635 74.501 79.3695 75.198C79.4695 75.325 79.5925 75.438 79.7415 75.534C82.3435 77.203 84.2005 79.801 86.5995 81.734C88.6685 83.401 90.5505 84.741 93.0875 85.659C96.1185 86.756 99.9435 86.252 103.095 86.252C104.561 86.252 105.913 86.08 107.354 85.821C108.793 85.563 110.245 85.798 111.604 85.175C113.27 84.412 114.362 83.906 115.45 85.517C116.355 86.859 117.365 87.723 118.679 88.682C121.323 90.612 123.817 92.128 127.126 92.586C130.403 93.038 134.007 92.87 137.26 92.335C140.023 91.88 143.797 91.226 145.794 89.0369C146.727 88.0149 145.999 86.71 144.76 86.544ZM103.602 76.804C103.34 77.867 103.236 78.459 103.414 79.262C103.061 77.905 102.967 76.414 102.953 74.945C103.007 73.341 102.976 72.047 102.976 71.641C102.975 70.841 102.447 70.384 101.84 70.264C102.608 69.884 103.377 69.488 104.143 69.075C103.802 69.323 103.56 69.698 103.56 70.181C103.561 71.627 103.452 74.055 103.674 76.447C103.651 76.566 103.632 76.687 103.602 76.804ZM89.0945 76.947C89.0995 76.827 89.1065 76.708 89.1245 76.592C89.2655 76.578 89.3945 76.55 89.5105 76.503C89.5105 76.605 89.5115 76.708 89.5125 76.814C89.5065 76.967 89.5075 77.121 89.4975 77.275C89.4535 77.994 89.3515 78.328 89.2215 78.424C89.2605 77.922 89.2145 77.426 89.0945 76.947ZM95.0255 82.861C95.1325 82.966 95.2435 83.065 95.3645 83.151C95.0425 83.097 94.7285 83.031 94.4175 82.963C94.6335 82.956 94.8355 82.92 95.0255 82.861ZM131.267 65.701C130.964 64.944 130.66 64.184 130.356 63.426C130.316 63.274 130.274 63.121 130.231 62.968C130.645 64.114 131.026 65.268 131.659 66.27C131.696 66.48 131.723 66.693 131.753 66.904C131.589 66.504 131.428 66.102 131.267 65.701ZM116.298 70.144C116.267 69.992 116.242 69.837 116.214 69.686C116.704 70.977 117.379 72.445 118.234 73.447C118.323 73.69 118.41 73.932 118.497 74.179C118.058 73.965 117.55 73.983 117.143 74.219C116.923 72.834 116.568 71.452 116.298 70.144ZM127.131 53.96C127.474 55.14 127.851 56.31 128.25 57.473C127.774 56.329 127.277 55.195 126.764 54.065C126.893 54.047 127.017 54.013 127.131 53.96ZM139.044 56.766C138.194 54.039 137.412 51.291 136.452 48.603C136.142 47.733 135.813 46.868 135.478 46.006C136.04 46.431 136.775 46.246 137.26 45.797C137.49 46.649 137.71 47.497 137.905 48.337C138.578 51.243 139.062 54.184 139.358 57.152C139.387 57.438 139.405 57.721 139.423 58.008C139.297 57.594 139.173 57.179 139.044 56.766ZM122.142 51.062C122.293 51.45 122.447 51.837 122.606 52.219C123.909 55.347 125.244 58.462 126.502 61.608C126.881 62.556 127.259 63.501 127.638 64.449C127.809 65.057 127.973 65.668 128.115 66.284C128.244 66.848 128.398 67.667 128.502 68.555C127.995 67.279 127.498 66.001 127.01 64.72C126.684 63.641 126.338 62.593 125.988 61.601C124.46 57.263 122.654 52.804 120.601 48.699C120.438 48.374 120.188 48.176 119.905 48.074C119.956 47.431 119.998 46.782 120.034 46.129C120.698 47.79 121.409 49.431 122.142 51.062ZM121.586 73.609C121.796 74.35 122.189 74.883 122.777 75.366C122.763 75.828 122.775 76.296 122.795 76.761C122.625 76.697 122.445 76.664 122.263 76.661C122.135 76.127 121.99 75.597 121.833 75.069C121.753 74.581 121.669 74.094 121.586 73.609ZM142.456 63.51C142.584 63.687 142.748 63.815 142.934 63.898C142.78 64.12 142.63 64.345 142.466 64.556C142.488 64.221 142.474 63.871 142.456 63.51ZM142.068 47.551C142.16 48.068 142.248 48.584 142.333 49.099C142.523 50.241 142.648 51.402 142.742 52.566C142.36 50.96 141.919 49.362 141.57 47.767C141.567 47.75 141.564 47.736 141.561 47.72C141.749 47.679 141.917 47.622 142.068 47.551ZM135.003 36.949C134.061 35.764 133.024 34.684 131.764 33.857C131.373 33.598 130.863 33.611 130.431 33.798C130.334 33.685 130.238 33.574 130.142 33.461C129.98 33.086 129.818 32.71 129.658 32.335C129.629 32.266 129.592 32.209 129.556 32.149C131.275 32.905 132.97 33.652 134.64 34.448C134.727 35.281 134.848 36.114 135.003 36.949ZM120.561 40.766C120.683 41.13 120.808 41.512 120.936 41.901C120.707 41.845 120.465 41.85 120.231 41.901C120.252 41.238 120.262 40.576 120.262 39.91C120.366 40.2 120.467 40.486 120.561 40.766ZM117.912 56.688C117.973 56.94 118.047 57.192 118.117 57.445C117.926 57.4 117.73 57.387 117.542 57.405C117.671 57.168 117.797 56.929 117.912 56.688ZM112.26 63.622C112.276 63.99 112.302 64.358 112.38 64.726C112.388 64.767 112.398 64.809 112.406 64.849C112.243 65.503 112.187 66.208 112.191 66.921C111.614 65.549 109.507 66.045 109.405 67.552C109.398 67.671 109.398 67.793 109.392 67.913C109.209 67.497 108.981 67.12 108.685 66.81C108.587 66.707 108.473 66.629 108.35 66.565C109.718 65.659 111.032 64.679 112.26 63.622ZM106.073 69.064C105.68 68.701 105.048 68.661 104.515 68.874C105.073 68.567 105.628 68.25 106.179 67.925C106.124 68.303 106.089 68.683 106.073 69.064ZM106.641 73.619C106.786 74.156 106.946 74.689 107.125 75.214C107.192 76.26 107.277 77.521 107.152 78.633C107.001 77.93 106.907 77.221 106.81 76.82C106.693 76.338 106.616 75.843 106.561 75.341C106.601 74.768 106.631 74.196 106.641 73.619ZM109.322 81.498C109.601 81.878 109.942 82.222 110.373 82.511C109.733 82.669 109.068 82.794 108.396 82.899C108.795 82.486 109.094 82.011 109.322 81.498ZM132.879 85.653C132.46 85.562 132.04 85.557 131.622 85.68C131.62 85.132 131.557 84.599 131.444 84.076C131.919 84.639 132.406 85.171 132.879 85.653ZM130.905 74.102C131.062 73.789 131.169 73.463 131.252 73.133C131.386 73.355 131.525 73.56 131.669 73.74C131.41 73.858 131.156 73.98 130.905 74.102ZM134.886 71.853C134.83 71.911 134.764 71.959 134.704 72.012C134.757 71.552 134.792 71.091 134.812 70.63C135.316 70.455 135.712 70.015 135.703 69.304C135.703 69.261 135.7 69.218 135.7 69.177C135.871 69.101 136.029 69.001 136.152 68.875C136.64 68.38 136.988 67.82 137.251 67.225C137.439 67.386 137.649 67.528 137.888 67.643C138.896 68.129 139.87 67.57 140.056 66.527C140.223 66.605 140.403 66.652 140.585 66.667C138.762 68.472 136.706 70.032 134.886 71.853ZM139.932 37.257C139.953 37.269 139.972 37.284 139.992 37.296C139.804 37.592 139.728 37.976 139.845 38.429C140.155 39.636 140.46 40.842 140.762 42.051C140.76 42.068 140.758 42.086 140.756 42.105C140.699 42.582 140.672 43.064 140.642 43.543C140.114 41.206 139.538 38.892 138.818 36.611C139.19 36.822 139.562 37.035 139.932 37.257ZM126.387 30.77C125.681 30.734 125.014 30.974 124.708 31.698C124.663 31.803 124.635 31.905 124.601 32.009C124.464 31.969 124.323 31.941 124.175 31.923C123.764 31.184 123.352 30.446 122.94 29.705C122.437 28.805 121.46 28.832 120.805 29.351C120.251 29.233 119.715 29.427 119.381 29.869C119.372 29.795 119.36 29.718 119.352 29.642C119.278 28.937 119.079 28.244 118.886 27.553C121.392 28.608 123.893 29.686 126.387 30.77ZM116.463 59.129C116.683 60.863 117.255 62.675 117.765 64.502C117.744 64.787 117.731 65.075 117.726 65.364C117.2 64.615 116.586 63.929 115.852 63.331C115.415 62.57 115.067 61.795 114.909 61.041C115.331 60.575 115.74 60.098 116.123 59.601C116.244 59.446 116.35 59.286 116.463 59.129ZM100.166 71.069C100.097 71.235 100.055 71.424 100.055 71.641C100.056 72.229 99.9685 74.196 100.081 76.351C100.064 76.501 100.041 76.647 100.015 76.792C100.059 74.937 99.8955 73.22 99.7095 72.421C99.6185 72.029 99.3825 71.744 99.0825 71.57C99.3565 71.444 99.6305 71.318 99.9005 71.193C99.9895 71.153 100.078 71.11 100.166 71.069ZM84.1225 75.373C84.5575 75.3549 84.9915 75.331 85.4255 75.304C85.2525 75.625 85.1495 75.976 85.1125 76.35C84.7855 76.018 84.4555 75.69 84.1225 75.373ZM100.977 83.474C101.21 83.256 101.416 82.968 101.598 82.627C102.014 83.13 102.536 83.403 103.195 83.323C104.16 83.206 104.876 82.718 105.362 82.024C105.711 82.483 106.123 82.861 106.613 83.124C105.763 83.211 104.927 83.277 104.146 83.328C103.137 83.397 102.065 83.451 100.977 83.474ZM123.876 88.632C121.583 87.607 119.86 85.95 118.255 84.145C118.344 84.121 118.428 84.086 118.509 84.044C118.907 84.684 119.362 85.211 119.875 85.564C119.929 85.653 119.985 85.742 120.06 85.824C121.684 87.603 124.487 88.499 126.778 88.981C127.702 89.177 130.365 89.803 132.537 89.911C129.595 90.039 126.468 89.791 123.876 88.632ZM138.311 89.29C138.3 89.157 138.286 89.023 138.258 88.9C138.625 88.973 138.994 89.034 139.367 89.077C139.017 89.158 138.664 89.226 138.311 89.29Z" fill="#3838B7"/>
</svg>
