<svg width="40" height="40" viewBox="0 0 40 40" fill="none" xmlns="http://www.w3.org/2000/svg">
<path d="M4.16668 28.3333C3.00238 22.8388 3.00238 17.1612 4.16668 11.6667C4.31966 11.1087 4.61524 10.6001 5.02436 10.191C5.43347 9.7819 5.94203 9.48631 6.50001 9.33333C15.4391 7.85243 24.5609 7.85243 33.5 9.33333C34.058 9.48631 34.5666 9.7819 34.9757 10.191C35.3848 10.6001 35.6804 11.1087 35.8333 11.6667C36.9976 17.1612 36.9976 22.8388 35.8333 28.3333C35.6804 28.8913 35.3848 29.3999 34.9757 29.809C34.5666 30.2181 34.058 30.5137 33.5 30.6667C24.561 32.1479 15.4391 32.1479 6.50001 30.6667C5.94203 30.5137 5.43347 30.2181 5.02436 29.809C4.61524 29.3999 4.31966 28.8913 4.16668 28.3333Z" stroke="white" stroke-width="2" stroke-linecap="round" stroke-linejoin="round"/>
<path d="M16.6665 25L24.9998 20L16.6665 15V25Z" stroke="white" stroke-width="2" stroke-linecap="round" stroke-linejoin="round"/>
</svg>
