<svg width="75" height="75" viewBox="0 0 75 75" fill="none" xmlns="http://www.w3.org/2000/svg">
<path d="M65.625 23.4375V18.75C65.625 17.0924 64.9665 15.5027 63.7944 14.3306C62.6223 13.1585 61.0326 12.5 59.375 12.5H15.625C13.9674 12.5 12.3777 13.1585 11.2056 14.3306C10.0335 15.5027 9.375 17.0924 9.375 18.75V62.5C9.375 64.1576 10.0335 65.7473 11.2056 66.9194C12.3777 68.0915 13.9674 68.75 15.625 68.75H26.5625" stroke="#FF472E" stroke-width="6.25" stroke-linecap="round" stroke-linejoin="round"/>
<path d="M50 6.25V18.75" stroke="#FF472E" stroke-width="6.25" stroke-linecap="round" stroke-linejoin="round"/>
<path d="M25 6.25V18.75" stroke="#FF472E" stroke-width="6.25" stroke-linecap="round" stroke-linejoin="round"/>
<path d="M9.375 31.25H25" stroke="#FF472E" stroke-width="6.25" stroke-linecap="round" stroke-linejoin="round"/>
<path d="M54.6875 54.6875L50 50.9375V43.75" stroke="#FF472E" stroke-width="6.25" stroke-linecap="round" stroke-linejoin="round"/>
<path d="M50 68.75C60.3553 68.75 68.75 60.3553 68.75 50C68.75 39.6447 60.3553 31.25 50 31.25C39.6447 31.25 31.25 39.6447 31.25 50C31.25 60.3553 39.6447 68.75 50 68.75Z" stroke="#741D12" stroke-width="6.25" stroke-linecap="round" stroke-linejoin="round"/>
</svg>