<svg width="33" height="33" viewBox="0 0 33 33" fill="none" xmlns="http://www.w3.org/2000/svg">
<path d="M23.375 2.75H9.625C5.82804 2.75 2.75 5.82804 2.75 9.625V23.375C2.75 27.172 5.82804 30.25 9.625 30.25H23.375C27.172 30.25 30.25 27.172 30.25 23.375V9.625C30.25 5.82804 27.172 2.75 23.375 2.75Z" stroke="white" stroke-width="2" stroke-linecap="round" stroke-linejoin="round"/>
<path d="M22.0001 15.6337C22.1698 16.778 21.9743 17.9467 21.4415 18.9736C20.9087 20.0004 20.0657 20.8331 19.0323 21.3532C17.999 21.8733 16.828 22.0544 15.6858 21.8706C14.5436 21.6868 13.4885 21.1475 12.6705 20.3295C11.8525 19.5115 11.3132 18.4564 11.1294 17.3142C10.9456 16.1721 11.1267 15.001 11.6468 13.9677C12.1669 12.9344 12.9996 12.0913 14.0264 11.5585C15.0533 11.0257 16.222 10.8302 17.3663 10.9999C18.5336 11.173 19.6143 11.7169 20.4487 12.5513C21.2831 13.3858 21.827 14.4664 22.0001 15.6337Z" stroke="white" stroke-width="2" stroke-linecap="round" stroke-linejoin="round"/>
<path d="M24.0625 8.9375H24.0763" stroke="white" stroke-width="2" stroke-linecap="round" stroke-linejoin="round"/>
</svg>