<svg width="28" height="28" viewBox="0 0 28 28" fill="none" xmlns="http://www.w3.org/2000/svg">
<path d="M18.6665 9.33325C20.523 9.33325 22.3035 10.0708 23.6163 11.3835C24.929 12.6963 25.6665 14.4767 25.6665 16.3333V24.4999H20.9998V16.3333C20.9998 15.7144 20.754 15.1209 20.3164 14.6833C19.8788 14.2458 19.2853 13.9999 18.6665 13.9999C18.0477 13.9999 17.4542 14.2458 17.0166 14.6833C16.579 15.1209 16.3332 15.7144 16.3332 16.3333V24.4999H11.6665V16.3333C11.6665 14.4767 12.404 12.6963 13.7168 11.3835C15.0295 10.0708 16.81 9.33325 18.6665 9.33325Z" stroke="white" stroke-width="2" stroke-linecap="round" stroke-linejoin="round"/>
<path d="M7.00016 10.5H2.3335V24.5H7.00016V10.5Z" stroke="white" stroke-width="2" stroke-linecap="round" stroke-linejoin="round"/>
<path d="M4.66683 6.99992C5.95549 6.99992 7.00016 5.95525 7.00016 4.66659C7.00016 3.37792 5.95549 2.33325 4.66683 2.33325C3.37816 2.33325 2.3335 3.37792 2.3335 4.66659C2.3335 5.95525 3.37816 6.99992 4.66683 6.99992Z" stroke="white" stroke-width="2" stroke-linecap="round" stroke-linejoin="round"/>
</svg>