<svg width="6" height="909" viewBox="0 0 6 909" fill="none" xmlns="http://www.w3.org/2000/svg">
<path d="M3 908.667C4.47276 908.667 5.66667 907.473 5.66667 906C5.66667 904.527 4.47276 903.333 3 903.333C1.52724 903.333 0.333333 904.527 0.333333 906C0.333333 907.473 1.52724 908.667 3 908.667ZM3.00004 5.66663C4.4728 5.66663 5.66671 4.47272 5.66671 3C5.66671 1.52722 4.4728 0.333313 3.00004 0.333313C1.52728 0.333313 0.333373 1.52722 0.333373 3C0.333373 4.47272 1.52728 5.66663 3.00004 5.66663ZM3.5 906L3.50004 3L2.50004 3L2.5 906L3.5 906Z" fill="white"/>
</svg>
