<svg width="6" height="908" viewBox="0 0 6 908" fill="none" xmlns="http://www.w3.org/2000/svg">
<path d="M3 907.667C4.47276 907.667 5.66667 906.473 5.66667 905C5.66667 903.527 4.47276 902.333 3 902.333C1.52724 902.333 0.333333 903.527 0.333333 905C0.333333 906.473 1.52724 907.667 3 907.667ZM3.00004 5.66669C4.4728 5.66669 5.66671 4.47278 5.66671 3C5.66671 1.52728 4.4728 0.333374 3.00004 0.333374C1.52728 0.333374 0.333373 1.52728 0.333373 3C0.333373 4.47278 1.52728 5.66669 3.00004 5.66669ZM3.5 905L3.50004 3L2.50004 3L2.5 905L3.5 905Z" fill="white"/>
</svg>