<svg width="28" height="41" viewBox="0 0 28 41" fill="none" xmlns="http://www.w3.org/2000/svg">
<path fill-rule="evenodd" clip-rule="evenodd" d="M8.08186 8.08186H0V0H8.08186H19.9467V8.08186H8.08186ZM0.0576284 16.1636L8.08186 24.1878V24.2454H0.0576298V32.3273H8.13949V24.2457H19.9467V16.1639H8.11083V16.1636H0.0576284ZM19.9467 32.3274H8.08186V32.3274H0.0576284L8.08186 40.3517V40.4092H19.9467V32.3274ZM19.9474 8.05327L28.0006 6.77109e-05L19.9474 6.84149e-05L19.9474 8.05327ZM28.0006 16.1636L19.9474 24.2168L19.9474 16.1636L28.0006 16.1636ZM19.9474 40.3806L28.0006 32.3274H19.9474L19.9474 40.3806ZM0.0285912 8.082L8.08179 16.1352V8.082H0.0285912Z" fill="white" fill-opacity="0.7"/>
</svg>